<svg width="115" height="94" viewBox="0 0 115 94" fill="none" xmlns="http://www.w3.org/2000/svg">
<path d="M64.8433 93V53.8755L94.7075 1H113L91.7105 47.6382H114.29V93H64.8433ZM1 93V53.8755L31.4358 1H49.7283L28.4389 47.6382H50.4464V93H1Z" fill="#6F402E"/>
<path d="M64.5933 93V93.25H64.8433H114.29H114.54V93V47.6382V47.3882H114.29H92.0995L113.227 1.10382L113.389 0.75H113H94.7075H94.5615L94.4898 0.877054L64.6257 53.7525L64.5933 53.8098V53.8755V93ZM0.75 93V93.25H1H50.4464H50.6964V93V47.6382V47.3882H50.4464H28.8278L49.9558 1.10382L50.1173 0.75H49.7283H31.4358H31.2912L31.2191 0.875283L0.783331 53.7508L0.75 53.8087V53.8755V93Z" stroke="#CFC292" stroke-opacity="0.2" stroke-width="0.5"/>
</svg>
