<svg width="32" height="27" viewBox="0 0 32 27" fill="none" xmlns="http://www.w3.org/2000/svg">
<path d="M31.3744 5.36788L16.3119 0.0534375C16.1101 -0.0178125 15.8899 -0.0178125 15.6881 0.0534375L0.625626 5.36788C0.251126 5.5 0.000500749 5.85375 7.49189e-07 6.25087C-0.000499251 6.648 0.249313 7.00231 0.623501 7.13531L15.686 12.4901C15.7876 12.5262 15.8938 12.5443 16 12.5443C16.1063 12.5443 16.2124 12.5262 16.314 12.4901L31.3765 7.13531C31.7507 7.00231 32.0004 6.648 32 6.25087C31.9995 5.85375 31.7489 5.5 31.3744 5.36788Z" fill="white"/>
<path d="M29.748 17.8816V9.7041L27.873 10.3707V17.8816C27.3083 18.2067 26.9277 18.8157 26.9277 19.5142C26.9277 20.2125 27.3083 20.8217 27.873 21.1467V25.754C27.873 26.2717 28.2928 26.6915 28.8105 26.6915C29.3283 26.6915 29.748 26.2717 29.748 25.754V21.1468C30.3128 20.8218 30.6934 20.2126 30.6934 19.5142C30.6934 18.8158 30.3129 18.2067 29.748 17.8816Z" fill="white"/>
<path d="M15.9996 14.4192C15.6778 14.4192 15.3608 14.3645 15.0575 14.2566L6.58984 11.2463V15.3718C6.58984 16.3812 7.64278 17.2347 9.71941 17.9087C11.5295 18.4962 13.7598 18.8198 15.9996 18.8198C18.2393 18.8198 20.4697 18.4962 22.2798 17.9087C24.3564 17.2347 25.4093 16.3812 25.4093 15.3718V11.2463L16.9417 14.2566C16.6383 14.3645 16.3214 14.4192 15.9996 14.4192Z" fill="white"/>
</svg>
