<svg width="34" height="34" viewBox="0 0 34 34" fill="none" xmlns="http://www.w3.org/2000/svg">
<path fill-rule="evenodd" clip-rule="evenodd" d="M17.9306 17.0117C18.1464 17.2396 18.2808 17.5397 18.311 17.8608C18.3412 18.1819 18.2652 18.5041 18.0961 18.7726C17.9269 19.0411 17.6751 19.2391 17.3835 19.333C17.0918 19.4269 16.7784 19.4108 16.4968 19.2875C16.2151 19.1641 15.9825 18.9412 15.8387 18.6567C15.6949 18.3721 15.6488 18.0436 15.7082 17.7271C15.7676 17.4106 15.9288 17.1257 16.1645 16.921C16.4001 16.7162 16.6955 16.6043 17.0003 16.6043C17.1731 16.6042 17.3442 16.64 17.5038 16.7099C17.6634 16.7798 17.8085 16.8824 17.9307 17.0117H17.9306ZM17.5155 20.4206V27.4166H20.9695C21.014 27.3602 21.0689 27.3138 21.1308 27.2805C22.9641 26.298 24.4315 24.6905 25.2963 22.7172C26.1612 20.7439 26.3731 18.5197 25.8978 16.4033C25.4226 14.287 24.288 12.4017 22.6769 11.0514C21.0658 9.7011 19.0721 8.96453 17.0173 8.96042C14.9624 8.95631 12.9661 9.6849 11.3501 11.0287C9.73424 12.3725 8.59291 14.2533 8.11015 16.3678C7.62739 18.4822 7.83133 20.7072 8.68911 22.6839C9.54689 24.6607 11.0085 26.2741 12.8383 27.2639C12.9136 27.2979 12.9803 27.3502 13.0328 27.4166H16.485V20.4206C15.9221 20.2863 15.4257 19.9371 15.0908 19.4397C14.7559 18.9423 14.606 18.3316 14.6698 17.7245C14.7335 17.1174 15.0065 16.5565 15.4365 16.1492C15.8665 15.7418 16.4232 15.5166 17.0002 15.5166C17.5772 15.5166 18.134 15.7418 18.564 16.1492C18.9939 16.5565 19.2669 17.1174 19.3307 17.7245C19.3945 18.3316 19.2446 18.9423 18.9097 19.4397C18.5748 19.9371 18.0784 20.2863 17.5155 20.4206ZM16.485 0.545464C16.485 0.400798 16.5393 0.262057 16.6359 0.159763C16.7325 0.0574683 16.8636 0 17.0002 0C17.1369 0 17.2679 0.0574683 17.3646 0.159763C17.4612 0.262057 17.5155 0.400798 17.5155 0.545464V4.2049C17.5155 4.34957 17.4612 4.48831 17.3646 4.5906C17.2679 4.6929 17.1369 4.75037 17.0002 4.75037C16.8636 4.75037 16.7325 4.6929 16.6359 4.5906C16.5393 4.48831 16.485 4.34957 16.485 4.2049V0.545464ZM28.2926 5.27172C28.3404 5.22106 28.3972 5.18087 28.4597 5.15344C28.5222 5.12602 28.5892 5.11189 28.6568 5.11187C28.7245 5.11184 28.7915 5.12593 28.854 5.15331C28.9165 5.1807 28.9733 5.22085 29.0211 5.27147C29.069 5.32209 29.1069 5.3822 29.1328 5.44836C29.1588 5.51451 29.1721 5.58542 29.1721 5.65704C29.1721 5.72865 29.1588 5.79957 29.133 5.86574C29.1071 5.93192 29.0692 5.99205 29.0214 6.04271L26.577 8.62978C26.4804 8.73208 26.3493 8.78956 26.2127 8.78956C26.076 8.78957 25.9449 8.73211 25.8483 8.62981C25.7517 8.52751 25.6974 8.38877 25.6974 8.24409C25.6973 8.09942 25.7516 7.96067 25.8483 7.85836L28.2926 5.27172ZM33.485 17.4517C33.6216 17.4517 33.7526 17.5091 33.8492 17.6114C33.9457 17.7136 34 17.8523 34 17.9969C34 18.1415 33.9457 18.2801 33.8492 18.3824C33.7526 18.4846 33.6216 18.542 33.485 18.542H30.0286C29.892 18.542 29.761 18.4846 29.6645 18.3824C29.5679 18.2801 29.5136 18.1415 29.5136 17.9969C29.5136 17.8523 29.5679 17.7136 29.6645 17.6114C29.761 17.5091 29.892 17.4517 30.0286 17.4517H33.485ZM29.0214 29.952C29.0692 30.0027 29.1071 30.0628 29.133 30.129C29.1588 30.1951 29.1721 30.2661 29.1721 30.3377C29.1721 30.4093 29.1588 30.4802 29.1328 30.5464C29.1069 30.6125 29.069 30.6726 29.0211 30.7232C28.9733 30.7739 28.9165 30.814 28.854 30.8414C28.7915 30.8688 28.7245 30.8829 28.6568 30.8829C28.5892 30.8828 28.5222 30.8687 28.4597 30.8413C28.3972 30.8138 28.3404 30.7737 28.2926 30.723L25.8483 28.1354C25.8004 28.0847 25.7625 28.0246 25.7366 27.9584C25.7108 27.8922 25.6975 27.8213 25.6975 27.7497C25.6975 27.6051 25.7519 27.4664 25.8485 27.3641C25.9451 27.2619 26.0762 27.2045 26.2128 27.2045C26.3494 27.2046 26.4804 27.2621 26.577 27.3644L29.0214 29.952ZM5.70781 30.723C5.61123 30.8253 5.48022 30.8828 5.34359 30.8829C5.20697 30.8829 5.07592 30.8255 4.97928 30.7232C4.88264 30.621 4.82833 30.4823 4.82828 30.3377C4.82824 30.193 4.88247 30.0543 4.97905 29.952L7.42345 27.3644C7.52003 27.2621 7.65104 27.2046 7.78766 27.2045C7.92429 27.2045 8.05534 27.2619 8.15197 27.3641C8.24861 27.4664 8.30293 27.6051 8.30297 27.7497C8.30302 27.8943 8.24879 28.0331 8.15221 28.1354L5.70781 30.723ZM0.514992 18.542C0.378407 18.542 0.247417 18.4846 0.150838 18.3824C0.0542579 18.2801 0 18.1415 0 17.9969C0 17.8523 0.0542579 17.7136 0.150838 17.6114C0.247417 17.5091 0.378407 17.4517 0.514992 17.4517H3.97178C4.10836 17.4517 4.23935 17.5091 4.33593 17.6114C4.43251 17.7136 4.48677 17.8523 4.48677 17.9969C4.48677 18.1415 4.43251 18.2801 4.33593 18.3824C4.23935 18.4846 4.10836 18.542 3.97178 18.542H0.514992ZM4.97905 6.04256C4.88409 5.93991 4.83123 5.80173 4.83197 5.65805C4.83271 5.51438 4.88698 5.37681 4.98299 5.27526C5.079 5.1737 5.20899 5.11636 5.34471 5.1157C5.48043 5.11504 5.61092 5.1711 5.70781 5.27172L8.15221 7.85843C8.24884 7.96074 8.30312 8.09949 8.30311 8.24416C8.30311 8.38884 8.24881 8.52759 8.15217 8.62988C8.05553 8.73218 7.92447 8.78964 7.7878 8.78963C7.65114 8.78963 7.52008 8.73215 7.42345 8.62984L4.97905 6.04278V6.04256ZM20.8471 28.5065H13.1534V29.9276C13.1534 31.0077 13.5587 32.0435 14.2801 32.8072C15.0015 33.5709 15.98 34 17.0002 34C18.0205 34 18.999 33.5709 19.7204 32.8072C20.4418 32.0435 20.8471 31.0077 20.8471 29.9276V28.5065Z" fill="white"/>
</svg>
