<svg width="28" height="28" viewBox="0 0 28 28" fill="none" xmlns="http://www.w3.org/2000/svg">
<path d="M26.7012 1.29878C25.8354 0.433026 24.7007 0.00012207 23.5659 0.00012207C22.4311 0.00012207 21.2964 0.433085 20.4306 1.29878L18.792 2.93738L25.0623 9.20812L26.7012 7.56934C27.567 6.70353 27.9999 5.56887 27.9999 4.43409C27.9999 3.29925 27.567 2.16446 26.7012 1.29878Z" fill="white"/>
<path d="M1.96617 19.7631L0.108182 21.6212L0 27.9999L6.37874 27.8917L8.23685 26.0336L1.96617 19.7631Z" fill="white"/>
<path d="M17.9672 3.76208L11.5667 10.1625L2.79102 18.9382L9.06158 25.2088L17.8373 16.4331L24.2376 10.0329L17.9672 3.76208ZM10.1426 18.6818L9.31775 17.857L10.1238 17.0509L10.9487 17.8758L10.1426 18.6818ZM12.2686 16.5558L11.4437 15.731L12.2686 14.9061L13.0934 15.731L12.2686 16.5558ZM14.4134 14.4111L13.5886 13.5862L14.414 12.7614L15.2388 13.5862L14.4134 14.4111ZM16.5587 12.2662L15.7339 11.4414L16.5587 10.6166L17.3836 11.4414L16.5587 12.2662Z" fill="white"/>
<path d="M27.9982 26.8334H13.3506V28H27.9982V26.8334Z" fill="white"/>
</svg>
