<svg width="17" height="11" viewBox="0 0 17 11" fill="none" xmlns="http://www.w3.org/2000/svg">
<path d="M1 5.50008H6.25009C7.52511 5.50008 8.50013 6.47509 8.50013 7.75012C8.50013 9.02514 7.52511 10.0002 6.25009 10.0002H1.75001C1.30001 10.0002 1 9.70015 1 9.25014V1.75001C1 1.30001 1.30001 1 1.75001 1H5.50008C6.7751 1 7.75012 1.97502 7.75012 3.25004C7.75012 4.52506 6.7751 5.50008 5.50008 5.50008H1Z" stroke="white" stroke-width="1.5" stroke-miterlimit="10"/>
<path d="M9.99988 7.00005H16C16 5.35002 14.65 4 12.9999 4C11.3499 4 9.99988 5.35002 9.99988 7.00005ZM9.99988 7.00005C9.99988 8.65008 11.3499 10.0001 12.9999 10.0001H14.275" stroke="white" stroke-width="1.5" stroke-miterlimit="10" stroke-linecap="round" stroke-linejoin="round"/>
<path d="M14.1249 2.125H11.8749" stroke="white" stroke-width="1.5" stroke-miterlimit="10" stroke-linecap="round" stroke-linejoin="round"/>
</svg>
