<svg width="44" height="38" viewBox="0 0 44 38" fill="none" xmlns="http://www.w3.org/2000/svg">
<path d="M18.5306 0C8.40816 2.95378 0 12.9328 0 25.9454C0 34.2479 3.67347 38 9.06122 38C14.2041 38 17.7959 34.4874 17.7959 29.458C17.7959 24.2689 14.1224 20.6765 8.89796 20.6765C6.36735 20.6765 4.32653 21.5546 2.69388 22.9118C3.26531 13.4916 9.79592 5.02941 19.102 1.83613L18.5306 0ZM43.3469 0C33.3061 2.95378 24.8163 12.9328 24.8163 25.9454C24.8163 34.2479 28.5714 38 33.9592 38C39.102 38 42.6939 34.4874 42.6939 29.458C42.6939 24.2689 39.0204 20.6765 33.7959 20.6765C31.2653 20.6765 29.1429 21.5546 27.5918 22.9118C28.1633 13.4916 34.6939 5.02941 44 1.83613L43.3469 0Z" fill="white" fill-opacity="0.1"/>
</svg>
